<svg width="17" height="17" viewBox="0 0 17 17" fill="none" xmlns="http://www.w3.org/2000/svg">
<path d="M14.3333 2.33332H12.6667V1.49999C12.6667 1.03999 12.2933 0.666656 11.8333 0.666656C11.3733 0.666656 11 1.03999 11 1.49999V2.33332H5.99999V1.49999C5.99999 1.03999 5.62666 0.666656 5.16666 0.666656C4.70666 0.666656 4.33332 1.03999 4.33332 1.49999V2.33332H2.66666C1.28666 2.33499 0.168323 3.45332 0.166656 4.83332V14C0.168323 15.38 1.28666 16.4983 2.66666 16.5H14.3333C15.7133 16.4983 16.8317 15.38 16.8333 14V4.83332C16.8317 3.45332 15.7133 2.33499 14.3333 2.33332ZM15.1667 14C15.1658 14.46 14.7933 14.8325 14.3333 14.8333H2.66666C2.20666 14.8325 1.83416 14.46 1.83332 14V4.83332C1.83416 4.37332 2.20666 4.00082 2.66666 3.99999H4.33332V4.83332C4.33332 5.29332 4.70666 5.66666 5.16666 5.66666C5.62666 5.66666 5.99999 5.29332 5.99999 4.83332V3.99999H11V4.83332C11 5.29332 11.3733 5.66666 11.8333 5.66666C12.2933 5.66666 12.6667 5.29332 12.6667 4.83332V3.99999H14.3333C14.7933 4.00082 15.1658 4.37332 15.1667 4.83332V14ZM5.16666 8.99999C4.70582 8.99832 4.33332 8.62416 4.33332 8.16332C4.33332 7.93416 4.42582 7.72582 4.57499 7.57499C4.72999 7.43166 4.93832 7.34332 5.16666 7.34332C5.39499 7.34332 5.60332 7.43166 5.75916 7.57499L5.75832 7.57416C5.79166 7.61582 5.82499 7.65749 5.85832 7.69916C5.88749 7.74249 5.91332 7.79166 5.93166 7.84499L5.93332 7.84916C5.95582 7.89249 5.97332 7.94249 5.98249 7.99582L5.98332 7.99916C5.99249 8.04832 5.99916 8.10582 5.99999 8.16499C5.99999 8.16749 5.99999 8.17166 5.99999 8.17416C5.99999 8.62999 5.63082 8.99916 5.17499 8.99916C5.17166 8.99916 5.16916 8.99916 5.16582 8.99916L5.16666 8.99999ZM8.49999 8.99999C8.26999 8.99832 8.06166 8.90666 7.90832 8.75832C7.76166 8.60416 7.66999 8.39666 7.66666 8.16749V8.16666C7.66832 8.05166 7.69249 7.94332 7.73499 7.84499L7.73249 7.84999C7.77499 7.74332 7.83416 7.65249 7.90749 7.57499C8.06249 7.43166 8.27082 7.34332 8.49916 7.34332C8.72749 7.34332 8.93582 7.43166 9.09165 7.57499L9.09082 7.57416C9.16165 7.65249 9.22082 7.74332 9.26332 7.84249L9.26582 7.84916C9.30665 7.94249 9.33082 8.05082 9.33249 8.16499C9.33082 8.22499 9.32499 8.28332 9.31416 8.33916L9.31499 8.33249C9.30499 8.38832 9.28749 8.43916 9.26332 8.48499L9.26499 8.48249C9.24666 8.53666 9.22165 8.58416 9.18915 8.62499L9.18999 8.62416C9.15666 8.67416 9.12332 8.71582 9.08999 8.75749C8.93666 8.90499 8.72832 8.99666 8.49916 8.99916L8.49999 8.99999ZM11.8333 8.99999C11.6033 8.99832 11.395 8.90666 11.2417 8.75832C11.205 8.71916 11.1725 8.67499 11.1433 8.62832L11.1417 8.62499C11.11 8.58499 11.0842 8.53749 11.0675 8.48666L11.0667 8.48332C11.0442 8.43999 11.0267 8.38999 11.0167 8.33666L11.0158 8.33332C11.0067 8.28416 11.0008 8.22666 11 8.16832V8.16666C11 8.16082 11 8.15416 11 8.14749C11 8.03916 11.025 7.93749 11.0683 7.84582L11.0667 7.84999C11.1117 7.74416 11.1708 7.65332 11.2425 7.57416L11.2417 7.57499C11.3933 7.42499 11.6017 7.33332 11.8317 7.33332C11.8908 7.33332 11.9492 7.33916 12.005 7.35166L11.9992 7.35082C12.0558 7.36082 12.1058 7.37832 12.1525 7.40249L12.1492 7.40082C12.2067 7.42082 12.2558 7.44582 12.3017 7.47749L12.2992 7.47582C12.3458 7.50916 12.3867 7.54166 12.425 7.57666L12.4242 7.57582C12.4975 7.65332 12.5567 7.74416 12.5975 7.84499L12.5992 7.85082C12.64 7.94416 12.6642 8.05249 12.6658 8.16666V8.16749C12.665 8.22749 12.6583 8.28499 12.6483 8.34082L12.6492 8.33416C12.6392 8.39082 12.6217 8.44082 12.5975 8.48666L12.5992 8.48416C12.5808 8.53832 12.5558 8.58582 12.5233 8.62666L12.5242 8.62582C12.4908 8.67582 12.4575 8.71749 12.4242 8.75916C12.3825 8.79249 12.34 8.82582 12.2992 8.85916C12.2558 8.88916 12.2067 8.91416 12.1533 8.93249L12.1492 8.93416C12.1058 8.95666 12.0558 8.97416 12.0025 8.98332L11.9992 8.98416C11.95 8.99332 11.8925 8.99916 11.8342 9.00082H11.8325L11.8333 8.99999ZM5.16666 12.3333C5.10666 12.3317 5.04916 12.3258 4.99332 12.3158L4.99999 12.3167C4.94332 12.3067 4.89332 12.2892 4.84666 12.265L4.84999 12.2667C4.79249 12.2467 4.74249 12.2217 4.69749 12.19L4.69999 12.1917C4.65832 12.1589 4.61666 12.1255 4.57499 12.0917C4.42249 11.94 4.32749 11.73 4.32749 11.4975C4.32749 11.035 4.70249 10.6608 5.16416 10.6608C5.39666 10.6608 5.60666 10.7558 5.75832 10.9083C5.79166 10.95 5.82499 10.9917 5.85832 11.0417C5.88999 11.0825 5.91499 11.1292 5.93249 11.18L5.93332 11.1833C5.95582 11.2267 5.97332 11.2775 5.98249 11.33L5.98332 11.3333C5.99249 11.3825 5.99916 11.44 5.99999 11.4992V11.5C5.99999 11.5025 5.99999 11.5058 5.99999 11.5083C5.99999 11.9642 5.63082 12.3333 5.17499 12.3333C5.17166 12.3333 5.16999 12.3333 5.16666 12.3333ZM8.49999 12.3333C8.26999 12.3317 8.06166 12.24 7.90832 12.0917C7.76166 11.9375 7.66999 11.73 7.66666 11.5008V11.5C7.66832 11.385 7.69249 11.2767 7.73499 11.1783L7.73249 11.1833C7.77499 11.0767 7.83416 10.9858 7.90749 10.9083C8.06249 10.765 8.27082 10.6767 8.49916 10.6767C8.72749 10.6767 8.93582 10.765 9.09165 10.9083L9.09082 10.9075C9.16165 10.9858 9.22082 11.0767 9.26332 11.1758L9.26582 11.1825C9.30665 11.2758 9.33082 11.3842 9.33249 11.4983C9.33082 11.5583 9.32415 11.6167 9.31416 11.6725L9.31499 11.6658C9.30499 11.7217 9.28749 11.7725 9.26332 11.8183L9.26499 11.8158C9.24666 11.87 9.22165 11.9167 9.18915 11.9583L9.18999 11.9575C9.15666 12.0075 9.12332 12.0492 9.08999 12.0908C8.93666 12.2383 8.72832 12.33 8.49916 12.3325L8.49999 12.3333ZM11.8333 12.3333C11.6033 12.3317 11.395 12.24 11.2417 12.0917C11.095 11.9375 11.0033 11.73 11 11.5008V11.5C11.0025 11.4392 11.0083 11.3817 11.0175 11.3258L11.0167 11.3333C11.0267 11.2767 11.045 11.2267 11.0683 11.18L11.0667 11.1833C11.0842 11.1292 11.11 11.0817 11.1425 11.0408L11.1417 11.0417C11.1717 10.9917 11.205 10.9475 11.2425 10.9075L11.2417 10.9083C11.3933 10.7583 11.6017 10.6667 11.8317 10.6667C11.8908 10.6667 11.9492 10.6725 12.005 10.685L11.9992 10.6842C12.0558 10.6942 12.1058 10.7117 12.1525 10.7358L12.1492 10.7342C12.2067 10.7542 12.2558 10.7792 12.3017 10.8108L12.2992 10.8092C12.3408 10.8425 12.3833 10.8758 12.4242 10.9092C12.5708 11.0633 12.6617 11.2708 12.665 11.5V11.5008C12.6633 11.6158 12.6392 11.7242 12.5967 11.8225L12.5992 11.8175C12.5542 11.9233 12.495 12.0142 12.4233 12.0933L12.4242 12.0925C12.3825 12.1258 12.34 12.1592 12.2992 12.1925C12.2558 12.2225 12.2067 12.2475 12.1533 12.2658L12.1492 12.2675C12.1058 12.29 12.0558 12.3075 12.0025 12.3167L11.9992 12.3175C11.95 12.3267 11.8925 12.3325 11.8342 12.3342H11.8325L11.8333 12.3333Z" fill="white"/>
</svg>
